# xmcd CD database file
#
# Track frame offsets:
#	225
#	12085
#	33708
#	48227
#	64319
#	77643
#	91634
#	100344
#	111443
#	127908
#	151588
#	175772
#
# Disc length: 2583 seconds
#
# Revision: 0
# Processed by: cddbd v1.4PL0 Copyright (c) Steve Scherf et al.
# Submitted via: CDex 1.50
#
DISCID=8a0a140c
DTITLE=Relaxing - Wellness Music and Nature Sounds
DYEAR=2002
DGENRE=New Age
TTITLE0=Blue Water
TTITLE1=Love Dreams
TTITLE2=Dreams Of Holiday
TTITLE3=Feeling
TTITLE4=Viva El Amor
TTITLE5=Moon Night
TTITLE6=Paradise Dreams
TTITLE7=Romantic
TTITLE8=Sea Rustles
TTITLE9=Blue Wave
TTITLE10=Last Dreams
TTITLE11=Good Bye
EXTD=YEAR: 2002
EXTT0=
EXTT1=
EXTT2=
EXTT3=
EXTT4=
EXTT5=
EXTT6=
EXTT7=
EXTT8=
EXTT9=
EXTT10=
EXTT11=
PLAYORDER=
